<svg width="264" height="271" viewBox="0 0 264 271" fill="none" xmlns="http://www.w3.org/2000/svg">
<path fill-rule="evenodd" clip-rule="evenodd" d="M104.902 214.504H122.582H140.689H158.369C157.815 216.523 156.729 218.008 156.709 220.56H140.689H140.179H140.156H139.645H139.623H139.112H139.089H138.579H138.556H138.046H138.023H137.513H137.489H136.979H136.956H136.446H136.423H135.913H135.89H135.38H135.357H134.846H134.823H134.313H134.29H133.78H133.757H133.247H133.224H132.713H132.691H132.18H132.157H131.647H131.624H131.114H131.091H130.58H130.557H130.047H130.024H129.514H129.491H128.981H128.958H128.447H128.425H127.914H127.891H127.381H127.358H126.848H126.825H126.315H126.292H125.781H125.758H125.248H125.225H124.715H124.692H124.182H124.159H123.648H123.625H123.115H123.092H122.582H106.562C106.541 218.008 105.455 216.523 104.902 214.504Z" fill="#F9F9F9"/>
<path d="M131.615 270.314C136.802 270.314 141.006 266.109 141.006 260.923C141.006 255.737 136.802 251.533 131.615 251.533C126.429 251.533 122.225 255.737 122.225 260.923C122.225 266.109 126.429 270.314 131.615 270.314Z" fill="white"/>
<path fill-rule="evenodd" clip-rule="evenodd" d="M116.728 218.809H146.503H152.606C155.8 218.809 158.413 221.169 158.413 224.053V250.273C158.413 253.157 155.8 255.517 152.606 255.517H152.458V256.04C152.458 258.998 149.778 261.418 146.503 261.418H116.728C113.453 261.418 110.773 258.998 110.773 256.04V255.517H110.625C107.431 255.517 104.818 253.157 104.818 250.273V224.053C104.818 221.169 107.431 218.809 110.625 218.809H116.728Z" fill="white"/>
<path fill-rule="evenodd" clip-rule="evenodd" d="M131.616 76.5929C159.968 76.5929 182.953 99.5773 182.953 127.93C182.953 133.358 182.108 138.588 180.546 143.499C174.54 166.143 159.352 189.179 158.079 212.509L158.378 214.138H158.011H157.548H157.181H156.718H156.351H155.888H155.521H155.058H154.692H154.229H153.862H153.399H153.032H152.569H152.202H151.739H151.372H150.909H150.542H150.079H149.713H149.25H148.883H148.42H148.053H147.59H147.223H146.76H146.393H145.93H145.564H145.1H144.734H144.271H143.904H143.441H143.074H142.611H142.244H141.781H141.414H140.951H140.585H140.122H139.755H139.292H138.925H138.462H138.095H137.632H137.265H136.802H136.436H135.972H135.606H135.143H134.776H134.313H133.946H133.483H133.116H132.653H132.286H131.824H131.457H130.994H130.627H130.164H129.797H129.334H128.967H128.504H128.137H127.674H127.308H126.844H126.478H126.015H125.648H125.185H124.818H124.355H123.988H123.525H123.158H122.695H122.329H121.866H121.499H121.036H120.669H120.206H119.839H119.376H119.009H118.546H118.18H117.716H117.35H116.887H116.52H116.057H115.69H115.227H114.86H114.397H114.03H113.567H113.201H112.738H112.371H111.908H111.541H111.078H110.711H110.248H109.881H109.418H109.052H108.588H108.222H107.759H107.392H106.929H106.562H106.099H105.732H105.269H104.902L105.201 212.509C103.946 189.495 89.1515 166.769 82.9852 144.422C81.2305 139.246 80.2785 133.699 80.2785 127.93C80.2785 99.5773 103.263 76.5929 131.616 76.5929V76.5929Z" stroke="white" stroke-width="3" stroke-miterlimit="22.9256" stroke-linecap="round" stroke-linejoin="round"/>
<path fill-rule="evenodd" clip-rule="evenodd" d="M153.708 255.549C153.351 255.622 152.983 255.66 152.606 255.66H152.458V256.269C152.458 259.712 149.778 262.528 146.503 262.528H116.728C113.453 262.528 110.773 259.712 110.773 256.269V255.66H110.625C110.248 255.66 109.88 255.622 109.523 255.549H153.708Z" fill="#F9F9F9"/>
<path fill-rule="evenodd" clip-rule="evenodd" d="M122.558 202.82H140.689L152.559 148.721L135.257 198.056L131.615 198.705L127.974 198.056L110.671 148.721L122.558 202.82Z" fill="white"/>
<path d="M152.732 141.752H110.498V147.466H152.732V141.752Z" fill="white"/>
<path d="M63.4529 18.9527L83.3898 56.1851L88.4268 53.4879L68.4899 16.2555L63.4529 18.9527Z" fill="white"/>
<path fill-rule="evenodd" clip-rule="evenodd" d="M52.3089 90.2256C40.2739 82.9218 28.2388 75.6182 16.2036 68.3145C17.1917 66.6864 18.1796 65.0582 19.1679 63.4298C31.203 70.7336 43.238 78.0374 55.2732 85.3412C54.2851 86.9694 53.297 88.5976 52.3089 90.2256Z" fill="white"/>
<path fill-rule="evenodd" clip-rule="evenodd" d="M42.2318 135.138C28.1547 135.003 14.0773 134.867 3.05176e-05 134.732C0.0185183 132.828 0.0368232 130.923 0.055128 129.019C14.1322 129.154 28.2095 129.289 42.2867 129.425C42.2684 131.329 42.2503 133.233 42.2318 135.138Z" fill="white"/>
<path fill-rule="evenodd" clip-rule="evenodd" d="M56.0987 179.707C43.7112 186.395 31.3234 193.083 18.9355 199.771C18.0309 198.095 17.1259 196.419 16.2213 194.743C28.6088 188.055 40.9966 181.367 53.3841 174.679C54.2891 176.355 55.1939 178.031 56.0987 179.707Z" fill="white"/>
<path fill-rule="evenodd" clip-rule="evenodd" d="M210.762 173.421C222.847 180.642 234.932 187.863 247.017 195.084C246.04 196.719 245.063 198.354 244.086 199.988C232.001 192.768 219.916 185.547 207.831 178.326C208.808 176.691 209.785 175.056 210.762 173.421Z" fill="white"/>
<path fill-rule="evenodd" clip-rule="evenodd" d="M221.06 128.577C235.138 128.616 249.216 128.654 263.294 128.693C263.288 130.597 263.283 132.502 263.278 134.406C249.2 134.368 235.123 134.329 221.045 134.291C221.05 132.386 221.055 130.482 221.06 128.577Z" fill="white"/>
<path fill-rule="evenodd" clip-rule="evenodd" d="M207.406 83.9608C219.747 77.188 232.089 70.4149 244.431 63.6418C245.347 65.3114 246.263 66.9809 247.18 68.6507C234.838 75.4238 222.496 82.1967 210.155 88.9697C209.238 87.3001 208.322 85.6305 207.406 83.9608Z" fill="white"/>
<path fill-rule="evenodd" clip-rule="evenodd" d="M173.62 52.6468C180.799 40.5375 187.979 28.4276 195.159 16.3179C196.797 17.2893 198.436 18.2608 200.074 19.232C192.894 31.3417 185.714 43.4512 178.534 55.5607C176.896 54.5895 175.258 53.6182 173.62 52.6468Z" fill="white"/>
<path d="M128.78 0.0039888L128.81 42.2382L134.524 42.2342L134.494 -1.27338e-05L128.78 0.0039888Z" fill="white"/>
</svg>
