<svg width="65" height="65" viewBox="0 0 65 65" fill="none" xmlns="http://www.w3.org/2000/svg">
<g clip-path="url(#clip0_73_9)">
<path d="M27.104 45.374C25.6105 45.5412 24.224 45.7057 22.8525 45.8469C22.1037 45.9237 21.3439 45.973 20.5979 46.0073C19.5309 46.0553 18.9302 45.5042 19.0125 44.435C19.1674 42.4103 19.3965 40.3925 19.5953 38.3719C19.6063 38.2608 19.6214 38.1512 19.6447 37.951C19.354 37.9318 19.0961 37.8989 18.8342 37.8989C14.0798 37.8989 9.32544 37.8967 4.57107 37.8921C4.22999 37.9097 3.88845 37.868 3.56168 37.7687C2.80326 37.485 2.57697 36.7776 2.89927 35.803C3.8922 32.8164 4.88787 29.8294 5.88629 26.8419C6.16744 25.9975 6.4431 25.1503 6.72699 24.3073C7.05888 23.3189 7.4374 23.0393 8.49342 23.0393C13.3374 23.0393 18.1827 23.0105 23.0308 23.0612C23.9511 23.0708 24.4352 22.809 24.8548 21.9742C27.0862 17.5382 30.0417 13.6533 33.8694 10.4593C37.4681 7.45311 41.5372 5.27214 45.8984 3.60523C51.2745 1.549 56.8536 0.431787 62.5849 0.0287667C64.7326 -0.123394 65.1234 0.309784 64.9712 2.46745C64.5282 8.70878 63.2349 14.7568 60.8267 20.5444C58.679 25.7028 55.7715 30.3608 51.6503 34.1991C49.006 36.6663 46.0067 38.7234 42.7523 40.302C42.1077 40.6145 41.9404 41.0011 41.9445 41.6728C41.9719 46.5378 41.9596 51.4056 41.9582 56.2679C41.9582 57.6634 41.8005 57.8909 40.4592 58.3406C36.7572 59.5816 33.0543 60.8153 29.3505 62.0418C27.7898 62.5599 27.1081 62.0514 27.1081 60.3858C27.1081 55.6803 27.1081 50.9738 27.1081 46.2664L27.104 45.374ZM62.3792 2.87869L62.1433 2.67855C60.5428 2.89103 58.9354 3.06924 57.3432 3.32284C51.9589 4.18097 46.8132 5.77249 41.9569 8.28931C35.3657 11.7054 30.4613 16.7527 27.1054 23.3532C24.7012 28.0825 23.2201 33.097 22.341 38.3047C22.0667 39.9168 21.9117 41.5467 21.695 43.2246C21.9358 43.2381 22.177 43.2381 22.4178 43.2246C24.1828 42.9902 25.9575 42.8133 27.7088 42.4967C33.5389 41.4576 39.059 39.559 44.1663 36.5034C49.5849 33.2615 53.6828 28.8077 56.6191 23.2367C58.7923 19.108 60.3446 14.6815 61.2258 10.1002C61.6879 7.7026 61.9993 5.28173 62.3792 2.87869ZM23.0116 25.7713C22.8884 25.7411 22.7633 25.7191 22.6372 25.7055C18.276 25.7055 13.9148 25.7055 9.55492 25.6918C9.14349 25.6918 9.00634 25.8961 8.89937 26.2292C8.33022 27.9633 7.74735 29.6919 7.17271 31.4232C6.76128 32.6501 6.36493 33.8783 5.9384 35.1847C6.2607 35.1998 6.48699 35.219 6.70093 35.219C10.9524 35.219 15.1943 35.2053 19.4417 35.2368C20.0644 35.2368 20.2221 34.9997 20.3784 34.4555C21.1464 31.7851 21.9734 29.1312 22.7812 26.4704C22.8416 26.2648 22.9184 26.0551 23.0116 25.7713ZM29.7976 59.0328C30.0101 58.9848 30.1226 58.9684 30.2282 58.9327C33.0671 57.9883 35.9019 57.0328 38.7449 56.1048C39.166 55.9677 39.3058 55.7579 39.3045 55.322C39.2908 51.0725 39.2962 46.823 39.2935 42.5734C39.2888 42.4312 39.2732 42.2896 39.2469 42.1498C36.2859 43.0011 33.4004 43.8579 30.4956 44.6434C29.9087 44.8024 29.7482 45.0244 29.7509 45.6029C29.7729 49.8292 29.7619 54.054 29.7646 58.2802C29.7605 58.5092 29.7825 58.7326 29.7976 59.0383V59.0328Z" fill="white" stroke="white"/>
<path d="M1.56071 56.8752C0.344233 56.8752 -0.308578 55.8334 0.14263 54.9794C0.280083 54.7428 0.45151 54.5275 0.651438 54.3406C3.16394 51.8197 5.66821 49.2919 8.21226 46.8011C8.55512 46.4666 9.10918 46.1678 9.55902 46.1788C9.92657 46.187 10.3737 46.6174 10.6233 46.9752C10.9497 47.4413 10.7206 47.9594 10.3627 48.346C9.81411 48.9505 9.21479 49.5194 8.63466 50.1007C6.60354 52.1404 4.57928 54.1816 2.5317 56.2035C2.20667 56.5188 1.77329 56.7299 1.56071 56.8752Z" fill="white"/>
<path d="M19.0467 55.455C18.7724 55.9375 18.6352 56.3447 18.361 56.6188C15.7515 59.2663 13.1261 61.8956 10.4847 64.5065C9.85521 65.1316 9.07211 65.1535 8.52765 64.6312C7.98318 64.109 7.97907 63.2878 8.62502 62.6312C11.2436 59.991 13.8713 57.3618 16.5081 54.7436C16.9511 54.3022 17.5079 54.0691 18.0551 54.3817C18.4446 54.6051 18.697 55.063 19.0467 55.455Z" fill="white"/>
<path d="M55.478 16.2429C55.478 19.8879 52.3799 22.9763 48.7359 22.9599C45.092 22.9434 42.0597 19.9084 42.0419 16.2689C42.0241 12.602 45.0714 9.53272 48.7414 9.52176C52.4114 9.51079 55.478 12.5855 55.478 16.2429ZM48.725 20.2882C50.9056 20.3101 52.7996 18.4307 52.8023 16.2442C52.8023 14.0975 50.9453 12.2223 48.7881 12.1949C46.6308 12.1674 44.7094 14.066 44.7094 16.2442C44.7094 18.4005 46.5636 20.2635 48.725 20.2882Z" fill="white"/>
</g>
<defs>
<clipPath id="clip0_73_9">
<rect width="65" height="65" fill="white"/>
</clipPath>
</defs>
</svg>
