<svg width="52" height="52" viewBox="0 0 52 52" fill="none" xmlns="http://www.w3.org/2000/svg">
<path fill-rule="evenodd" clip-rule="evenodd" d="M20.8862 41.1717H24.2667H27.7289H31.1094C31.0036 41.5577 30.796 41.8418 30.792 42.3296H27.7289H27.6313H27.627H27.5294H27.525H27.4274H27.423H27.3255H27.3211H27.2235H27.2191H27.1216H27.1171H27.0196H27.0152H26.9176H26.9132H26.8157H26.8113H26.7137H26.7093H26.6117H26.6074H26.5098H26.5054H26.4078H26.4035H26.3059H26.3015H26.2039H26.1995H26.102H26.0976H26H25.9956H25.8981H25.8936H25.7961H25.7917H25.6941H25.6897H25.5922H25.5878H25.4902H25.4858H25.3882H25.3839H25.2863H25.2819H25.1843H25.18H25.0824H25.078H24.9804H24.976H24.8785H24.8741H24.7765H24.7721H24.6745H24.6702H24.5726H24.5682H24.4706H24.4662H24.3687H24.3643H24.2667H21.2036C21.1997 41.8418 20.992 41.5577 20.8862 41.1717Z" fill="#727271"/>
<path d="M25.994 51.843C26.9856 51.843 27.7895 51.0391 27.7895 50.0475C27.7895 49.0558 26.9856 48.2519 25.994 48.2519C25.0023 48.2519 24.1984 49.0558 24.1984 50.0475C24.1984 51.0391 25.0023 51.843 25.994 51.843Z" fill="#00A0E3"/>
<path fill-rule="evenodd" clip-rule="evenodd" d="M23.1474 41.9949H28.8406H30.0075C30.6182 41.9949 31.1178 42.4461 31.1178 42.9976V48.011C31.1178 48.5625 30.6182 49.0137 30.0075 49.0137H29.9792V49.1137C29.9792 49.6793 29.4668 50.142 28.8406 50.142H23.1474C22.5211 50.142 22.0087 49.6793 22.0087 49.1137V49.0137H21.9805C21.3697 49.0137 20.8701 48.5625 20.8701 48.011V42.9976C20.8701 42.4461 21.3697 41.9949 21.9805 41.9949H23.1474Z" fill="#2B2A29"/>
<path fill-rule="evenodd" clip-rule="evenodd" d="M25.9939 14.8021C31.4152 14.8021 35.81 19.1969 35.81 24.6182C35.81 25.656 35.6484 26.656 35.3499 27.595C34.2015 31.9248 31.2973 36.3293 31.054 40.7902L31.1111 41.1017H31.0409H30.9524H30.8823H30.7937H30.7236H30.6351H30.5649H30.4764H30.4063H30.3177H30.2476H30.1591H30.0889H30.0004H29.9302H29.8417H29.7716H29.6831H29.6129H29.5244H29.4542H29.3657H29.2956H29.2071H29.1369H29.0484H28.9782H28.8897H28.8196H28.7311H28.6609H28.5724H28.5022H28.4137H28.3436H28.255H28.1849H28.0964H28.0262H27.9377H27.8676H27.779H27.7089H27.6204H27.5502H27.4617H27.3916H27.303H27.2329H27.1444H27.0742H26.9857H26.9156H26.827H26.7569H26.6684H26.5982H26.5097H26.4396H26.351H26.2809H26.1924H26.1222H26.0337H25.9636H25.875H25.8049H25.7164H25.6462H25.5577H25.4875H25.399H25.3289H25.2404H25.1702H25.0817H25.0115H24.923H24.8529H24.7644H24.6942H24.6057H24.5355H24.447H24.3769H24.2884H24.2182H24.1297H24.0595H23.971H23.9009H23.8124H23.7422H23.6537H23.5835H23.495H23.4249H23.3363H23.2662H23.1777H23.1075H23.019H22.9489H22.8603H22.7902H22.7017H22.6315H22.543H22.4729H22.3843H22.3142H22.2257H22.1555H22.067H21.9969H21.9083H21.8382H21.7497H21.6795H21.591H21.5208H21.4323H21.3622H21.2737H21.2035H21.115H21.0448H20.9563H20.8862L20.9433 40.7902C20.7032 36.3899 17.8745 32.0445 16.6955 27.7715C16.36 26.7818 16.1779 25.7213 16.1779 24.6182C16.1779 19.1969 20.5727 14.8021 25.9939 14.8021V14.8021Z" stroke="#2B2A29" stroke-width="3" stroke-miterlimit="22.9256" stroke-linecap="round" stroke-linejoin="round"/>
<path fill-rule="evenodd" clip-rule="evenodd" d="M30.2182 49.0198C30.1499 49.0337 30.0795 49.0411 30.0075 49.0411H29.9792V49.1575C29.9792 49.8157 29.4668 50.3542 28.8405 50.3542H23.1474C22.5211 50.3542 22.0087 49.8157 22.0087 49.1575V49.0411H21.9804C21.9084 49.0411 21.8379 49.0337 21.7697 49.0198H30.2182Z" fill="#9D9E9E"/>
<path fill-rule="evenodd" clip-rule="evenodd" d="M24.2621 38.9376H27.7288L29.9986 28.5936L26.6903 38.0268L25.9939 38.1508L25.2976 38.0268L21.9893 28.5936L24.2621 38.9376Z" fill="#00A0E3"/>
<path d="M30.0317 27.261H21.9562V28.3535H30.0317V27.261Z" fill="#00A0E3"/>
<path d="M12.9608 3.78089L16.7729 10.9L17.736 10.3843L13.9239 3.26518L12.9608 3.78089Z" fill="#00A0E3"/>
<path fill-rule="evenodd" clip-rule="evenodd" d="M10.83 17.4088C8.52882 16.0123 6.22761 14.6158 3.92639 13.2192C4.11532 12.9079 4.30422 12.5966 4.49318 12.2852C6.7944 13.6818 9.09558 15.0783 11.3968 16.4749C11.2079 16.7862 11.0189 17.0975 10.83 17.4088Z" fill="#00A0E3"/>
<path fill-rule="evenodd" clip-rule="evenodd" d="M8.90315 25.9964C6.21151 25.9705 3.5198 25.9446 0.828125 25.9188C0.83166 25.5546 0.83516 25.1905 0.83866 24.8264C3.5303 24.8522 6.22197 24.8781 8.91365 24.9039C8.91015 25.2681 8.90668 25.6322 8.90315 25.9964Z" fill="#00A0E3"/>
<path fill-rule="evenodd" clip-rule="evenodd" d="M11.5546 34.5182C9.18601 35.797 6.81739 37.0758 4.44873 38.3546C4.27576 38.0342 4.10272 37.7138 3.92975 37.3933C6.29834 36.1145 8.66697 34.8357 11.0356 33.5569C11.2086 33.8773 11.3816 34.1978 11.5546 34.5182Z" fill="#00A0E3"/>
<path fill-rule="evenodd" clip-rule="evenodd" d="M41.1273 33.3164C43.438 34.6971 45.7487 36.0778 48.0595 37.4585C47.8727 37.7711 47.6859 38.0837 47.4991 38.3963C45.1884 37.0156 42.8777 35.6349 40.567 34.2542C40.7538 33.9416 40.9405 33.629 41.1273 33.3164Z" fill="#00A0E3"/>
<path fill-rule="evenodd" clip-rule="evenodd" d="M43.0964 24.7419C45.7882 24.7493 48.48 24.7566 51.1718 24.764C51.1708 25.1281 51.1698 25.4923 51.1688 25.8565C48.477 25.8491 45.7853 25.8418 43.0934 25.8344C43.0945 25.4702 43.0954 25.1061 43.0964 24.7419Z" fill="#00A0E3"/>
<path fill-rule="evenodd" clip-rule="evenodd" d="M40.4857 16.2109C42.8454 14.9159 45.2052 13.6208 47.565 12.3258C47.7402 12.645 47.9155 12.9642 48.0907 13.2835C45.7308 14.5786 43.3711 15.8736 41.0113 17.1687C40.836 16.8494 40.6608 16.5302 40.4857 16.2109Z" fill="#00A0E3"/>
<path fill-rule="evenodd" clip-rule="evenodd" d="M34.0255 10.2234C35.3983 7.90806 36.7711 5.59256 38.1439 3.2771C38.4572 3.46284 38.7704 3.64859 39.0837 3.8343C37.7108 6.14976 36.338 8.46519 34.9652 10.7806C34.652 10.5949 34.3387 10.4092 34.0255 10.2234Z" fill="#00A0E3"/>
<path d="M25.4519 0.157764L25.4575 8.23325L26.55 8.23248L26.5444 0.156999L25.4519 0.157764Z" fill="#00A0E3"/>
</svg>
