<svg width="85" height="65" viewBox="0 0 85 65" fill="none" xmlns="http://www.w3.org/2000/svg">
<rect x="1.5" y="1.5" width="82" height="62" rx="4.5" stroke="white" stroke-width="3"/>
<g clip-path="url(#clip0_59_18)">
<path d="M32.651 53.3074C32.0909 53.328 31.6466 53.0828 31.2633 52.6925C29.1596 50.5498 27.0556 48.4076 24.9513 46.266C23.2601 44.542 21.5564 42.8306 19.8918 41.0804C19.5249 40.6948 19.2887 40.1775 19.0211 39.7031C18.9664 39.6055 19.0297 39.4294 19.0587 39.2937C19.2495 38.4122 19.9035 37.8656 20.4878 37.269C22.2943 35.4251 24.1018 33.5824 25.9104 31.7406C27.6939 29.9238 29.4665 28.0958 31.2664 26.2948C32.2387 25.3213 33.5952 25.4744 34.3109 26.5915C34.7591 27.2905 34.6574 28.3473 34.0512 28.9717C32.2322 30.843 30.407 32.7091 28.5755 34.5699C27.0611 36.1154 25.5482 37.6641 24.0197 39.1953C23.7756 39.4397 23.81 39.5809 24.0259 39.7999C26.8081 42.6175 29.5851 45.4382 32.3569 48.2622C32.9248 48.8406 33.4982 49.4126 34.052 50.0076C34.6434 50.6424 34.7192 51.3881 34.4204 52.176C34.1576 52.8639 33.4411 53.3089 32.651 53.3074Z" fill="white"/>
<path d="M60.3636 39.4747C59.1902 38.3028 58.063 37.1945 56.953 36.071C55.4318 34.5313 53.9166 32.9855 52.4074 31.4337C51.586 30.5943 50.7592 29.7612 49.9496 28.9115C49.2753 28.2046 49.2964 26.9772 49.973 26.2933C50.7702 25.484 51.9028 25.4206 52.6561 26.183C55.103 28.6563 57.5431 31.1362 59.9764 33.6226C61.3711 35.042 62.7542 36.4733 64.1645 37.8768C64.5721 38.2822 64.8592 38.7432 64.9718 39.289C65.0923 39.8753 64.8154 40.3911 64.4391 40.7965C63.4112 41.8953 62.345 42.9577 61.2929 44.0327C59.4802 45.8766 57.6693 47.722 55.8602 49.569C54.7823 50.6678 53.7169 51.7794 52.6147 52.852C52.0671 53.3852 51.3584 53.4558 50.6771 53.1869C49.9957 52.9179 49.5694 52.3784 49.4755 51.6104C49.3817 50.8424 49.7149 50.2727 50.2312 49.7499C52.7286 47.2211 55.2198 44.6859 57.7048 42.1444C58.5621 41.2717 59.4343 40.4077 60.3636 39.4747Z" fill="white"/>
<path d="M46.8996 25.0048C48.2685 24.9056 49.1736 26.4567 48.6628 27.7245C47.8805 29.6628 47.1875 31.6375 46.4506 33.5956C45.9413 34.9491 45.4212 36.2987 44.9103 37.6514C44.247 39.4104 43.5907 41.1717 42.9266 42.9298C42.3237 44.5277 41.7175 46.1259 41.1078 47.7243C40.4719 49.396 39.8265 51.0645 39.2023 52.7409C38.8401 53.7112 37.8443 54.2126 36.8274 53.9127C35.9192 53.6438 35.3012 52.6036 35.568 51.6595C35.7964 50.851 36.1155 50.0727 36.4136 49.2793C36.9518 47.8377 37.5001 46.4001 38.043 44.9609C38.577 43.546 39.1102 42.1309 39.6427 40.7155C40.1856 39.2763 40.729 37.8371 41.2729 36.3979C42.113 34.1851 42.9594 31.9747 43.7972 29.7611C44.2204 28.6425 44.6459 27.5246 45.0402 26.3956C45.35 25.5038 45.9797 25.0056 46.8996 25.0048Z" fill="white"/>
</g>
<line x1="2" y1="16" x2="83" y2="16" stroke="white" stroke-width="2"/>
<circle cx="10" cy="9" r="3" fill="white"/>
<circle cx="18" cy="9" r="3" fill="white"/>
<circle cx="26" cy="9" r="3" fill="white"/>
<defs>
<clipPath id="clip0_59_18">
<rect width="46" height="29" fill="white" transform="translate(19 25)"/>
</clipPath>
</defs>
</svg>
